<?xml version="1.0" encoding="UTF-8" standalone="no"?>
<svg xmlns="http://www.w3.org/2000/svg" version="1.1" width="16" height="16">
    <path
            d="M 8.6973344,0 C 5.9217418,0.00899958 5.7261546,1.8965796 4.080493,2.6211596 c -0.8776278,-0.19164 -3.7725048,0.57329 -4.07098749,1.79189 -0.08345774,0.34073 0.39256977,0.31192 1.03337239,0.30003 1.0782648,-0.02 1.5669155,-0.17657 2.208417,-0.23752 0.0087,0.005 0.015959,0.0122 0.025001,0.0167 1.8711588,0.92342 2.1819811,1.70051 2.2209174,1.75022 -0.017406,-0.0465 -2.6808023,3.06936 -2.4417591,5.6923804 0.102147,1.12086 0.373175,3.97777 4.7710138,4.063 7.63747,0.14801 8.524229,-7.5065904 8.079473,-7.9509904 -0.621473,-0.62097 -2.627299,-0.0664 -2.616766,-0.10001 1.177705,-3.75784 0.923609,-7.96498002 -4.5918406,-7.946820015834 z m 0.2166749,1.6877096 c 0.5883251,-0.0286 1.0875237,0.26971 1.0500397,0.75009 -0.00571,0.0732 -0.1956411,-0.0813 -0.5166862,-0.19169 0.095504,0.1393 0.1541726,0.3059 0.1541726,0.48756 0,0.47871 -0.3880347,0.86678 -0.8666996,0.86678 -0.478665,0 -0.8666994,-0.38807 -0.8666994,-0.86678 0,-0.13829 0.034072,-0.26739 0.09167,-0.38338 -0.2244301,0.0655 -0.3969511,0.11727 -0.3666804,0.075 0.3535126,-0.49349 0.863297,-0.71533 1.3208833,-0.73759 z"
            style="fill:#797c80" />
</svg>
