<?xml version="1.0" encoding="UTF-8" standalone="no"?>
<svg
   xmlns:dc="http://purl.org/dc/elements/1.1/"
   xmlns:cc="http://creativecommons.org/ns#"
   xmlns:rdf="http://www.w3.org/1999/02/22-rdf-syntax-ns#"
   xmlns:svg="http://www.w3.org/2000/svg"
   xmlns="http://www.w3.org/2000/svg"
   xmlns:xlink="http://www.w3.org/1999/xlink"
   xmlns:sodipodi="http://sodipodi.sourceforge.net/DTD/sodipodi-0.dtd"
   xmlns:inkscape="http://www.inkscape.org/namespaces/inkscape"
   width="16"
   height="16"
   id="svg2"
   version="1.1"
   inkscape:version="0.48.2 r9819"
   sodipodi:docname="icon.svg">
  <metadata
     id="metadata52">
    <rdf:RDF>
      <cc:Work
         rdf:about="">
        <dc:format>image/svg+xml</dc:format>
        <dc:type
           rdf:resource="http://purl.org/dc/dcmitype/StillImage" />
      </cc:Work>
    </rdf:RDF>
  </metadata>
  <sodipodi:namedview
     pagecolor="#ffffff"
     bordercolor="#666666"
     borderopacity="1"
     objecttolerance="10"
     gridtolerance="10"
     guidetolerance="10"
     inkscape:pageopacity="0"
     inkscape:pageshadow="2"
     inkscape:window-width="1920"
     inkscape:window-height="988"
     id="namedview50"
     showgrid="false"
     inkscape:zoom="8.4269295"
     inkscape:cx="46.979024"
     inkscape:cy="8.821669"
     inkscape:window-x="0"
     inkscape:window-y="0"
     inkscape:window-maximized="1"
     inkscape:current-layer="svg2" />
  <defs
     id="defs4">
    <linearGradient
       id="d">
      <stop
         offset="0"
         stop-color="#383838"
         id="stop7" />
      <stop
         offset="1"
         stop-color="#626262"
         id="stop9" />
    </linearGradient>
    <linearGradient
       id="a">
      <stop
         offset="0"
         stop-color="#6e6e6e"
         id="stop12" />
      <stop
         offset="1"
         stop-color="#777"
         id="stop14" />
    </linearGradient>
    <clipPath
       id="clipPath16">
      <rect
         width="120"
         height="120"
         x="8"
         y="8"
         ry="8"
         id="rect18"
         style="fill:#ff3aff" />
    </clipPath>
    <clipPath
       id="clipPath20">
      <rect
         width="120"
         height="120"
         x="8"
         y="8"
         ry="8"
         id="rect22"
         style="fill:#ff3aff" />
    </clipPath>
    <linearGradient
       xlink:href="#a"
       x1="77.166"
       y1="26.115999"
       x2="77.166"
       y2="145.744"
       gradientUnits="userSpaceOnUse"
       gradientTransform="matrix(0.117,0,0,0.117,-1.031,-2.056)"
       id="linearGradient24" />
    <linearGradient
       xlink:href="#b"
       x1="76"
       y1="12"
       x2="76"
       y2="156"
       gradientUnits="userSpaceOnUse"
       id="linearGradient26" />
    <linearGradient
       id="b">
      <stop
         offset="0"
         stop-color="#6e6e6e"
         id="stop29" />
      <stop
         offset="1"
         stop-color="#777"
         id="stop31" />
    </linearGradient>
    <linearGradient
       xlink:href="#c"
       x1="77.166"
       y1="26.115999"
       x2="77.166"
       y2="145.744"
       gradientUnits="userSpaceOnUse"
       gradientTransform="matrix(0.117,0,0,0.117,-1.031,-2.056)"
       id="linearGradient33" />
    <linearGradient
       id="c">
      <stop
         offset="0"
         stop-color="#6e6e6e"
         id="stop36" />
      <stop
         offset="1"
         stop-color="#777"
         id="stop38" />
    </linearGradient>
    <linearGradient
       y2="145.744"
       x2="77.166"
       y1="26.115999"
       x1="77.166"
       gradientTransform="matrix(0.117,0,0,0.117,-1.45,-2.556)"
       gradientUnits="userSpaceOnUse"
       xlink:href="#c"
       id="linearGradient40" />
    <linearGradient
       xlink:href="#d"
       x1="8"
       x2="8"
       y2="16"
       gradientUnits="userSpaceOnUse"
       id="linearGradient42" />
  </defs>
  <g
     id="g44"
     transform="matrix(0.11111111,0,0,0.11111111,-0.47192512,-1.306956)">
    <path
       d="M 81.969,21.844 C 59.77,21.917 58.187,36.982 45.031,42.782 38.009,41.25 14.856,47.379 12.468,57.126 c -0.668,2.726 3.124,2.501 8.25,2.406 8.652,-0.16 12.563,-1.422 17.719,-1.906 l 0.188,0.125 c 14.969,7.386 17.439,13.634 17.75,14.031 -0.139,-0.372 -21.444,24.55 -19.531,45.531 0.817,8.966 2.974,32.006 38.156,32.688 61.099,1.184 69.808,-60.226 66.25,-63.781 -4.972,-4.967 -22.647,-0.543 -22.563,-0.813 9.422,-30.059 7.404,-63.708 -36.719,-63.563 z m 1.75,13.469 c 4.706,-0.229 8.706,2.189 8.406,6.031 -0.042,0.54 -1.345,-0.487 -3.563,-1.344 0.622,1.036 0.969,2.266 0.969,3.563 0,3.807 -3.068,6.875 -6.875,6.875 -3.807,0 -6.906,-3.068 -6.906,-6.875 0,-1.095 0.265,-2.143 0.719,-3.063 -2.036,0.59 -3.574,1.084 -3.313,0.719 2.828,-3.947 6.902,-5.728 10.563,-5.906 z"
       id="path46"
       inkscape:connector-curvature="0"
       style="fill:#797c80" />
    <rect
       width="144"
       height="144"
       x="4"
       y="12"
       ry="8"
       id="rect48"
       style="fill:none" />
  </g>
</svg>
